<?xml version="1.0" encoding="UTF-8"?>
<svg xmlns="http://www.w3.org/2000/svg" xmlns:xlink="http://www.w3.org/1999/xlink" width="168px" height="57px" viewBox="0 0 168 57" version="1.1">
<g id="surface1">
<path style=" stroke:none;fill-rule:nonzero;fill:rgb(25.882353%,17.647059%,86.666667%);fill-opacity:1;" d="M 57.320312 45.808594 L 57.320312 43.011719 L 60.160156 43.011719 L 60.160156 31.21875 L 57.320312 31.21875 L 57.320312 28.328125 L 60.121094 28.328125 L 60.121094 21.710938 C 60.121094 19.96875 60.390625 18.429688 60.941406 17.101562 C 61.480469 15.761719 62.21875 14.648438 63.148438 13.738281 C 64.078125 12.808594 65.191406 12.101562 66.480469 11.621094 C 67.769531 11.140625 69.140625 10.871094 70.601562 10.800781 L 70.601562 13.601562 C 69.539062 13.660156 68.558594 13.871094 67.660156 14.230469 C 66.761719 14.589844 65.96875 15.109375 65.28125 15.789062 C 64.558594 16.46875 64.011719 17.308594 63.628906 18.308594 C 63.238281 19.300781 63.050781 20.449219 63.050781 21.761719 L 63.050781 28.328125 L 68.738281 28.328125 L 68.738281 31.21875 L 63.050781 31.21875 L 63.050781 43.011719 L 67.011719 43.011719 L 67.011719 45.808594 Z M 57.320312 45.808594 "/>
<path style=" stroke:none;fill-rule:nonzero;fill:rgb(25.882353%,17.647059%,86.666667%);fill-opacity:1;" d="M 83.949219 45.460938 C 82.820312 45.941406 81.609375 46.179688 80.339844 46.179688 C 79.070312 46.179688 77.820312 45.941406 76.710938 45.460938 C 75.589844 44.980469 74.609375 44.320312 73.769531 43.480469 C 72.929688 42.671875 72.269531 41.71875 71.789062 40.609375 C 71.308594 39.511719 71.070312 38.320312 71.070312 37.039062 C 71.070312 35.761719 71.308594 34.621094 71.789062 33.5 C 72.269531 32.378906 72.929688 31.398438 73.769531 30.558594 C 74.609375 29.75 75.589844 29.109375 76.710938 28.628906 C 77.828125 28.148438 79.039062 27.910156 80.339844 27.910156 C 81.640625 27.910156 82.820312 28.148438 83.949219 28.628906 C 85.078125 29.109375 86.070312 29.761719 86.910156 30.558594 C 87.75 31.398438 88.410156 32.378906 88.890625 33.5 C 89.371094 34.621094 89.609375 35.800781 89.609375 37.039062 C 89.609375 38.28125 89.371094 39.5 88.890625 40.609375 C 88.410156 41.710938 87.75 42.671875 86.910156 43.480469 C 86.070312 44.320312 85.078125 44.980469 83.949219 45.460938 Z M 77.800781 42.851562 C 78.558594 43.179688 79.378906 43.339844 80.25 43.339844 C 81.121094 43.339844 81.929688 43.179688 82.699219 42.851562 C 83.460938 42.519531 84.140625 42.070312 84.730469 41.480469 C 85.289062 40.949219 85.730469 40.308594 86.058594 39.550781 C 86.390625 38.789062 86.550781 37.96875 86.550781 37.101562 C 86.550781 36.230469 86.390625 35.421875 86.058594 34.648438 C 85.730469 33.890625 85.289062 33.210938 84.730469 32.621094 C 84.140625 32.058594 83.460938 31.621094 82.699219 31.289062 C 81.941406 30.960938 81.121094 30.800781 80.25 30.800781 C 79.378906 30.800781 78.558594 30.960938 77.800781 31.289062 C 77.039062 31.621094 76.390625 32.058594 75.871094 32.621094 C 75.28125 33.210938 74.820312 33.890625 74.5 34.648438 C 74.171875 35.410156 74.011719 36.230469 74.011719 37.101562 C 74.011719 37.96875 74.171875 38.789062 74.5 39.550781 C 74.828125 40.308594 75.28125 40.960938 75.871094 41.480469 C 76.398438 42.070312 77.039062 42.53125 77.800781 42.851562 Z M 77.800781 42.851562 "/>
<path style=" stroke:none;fill-rule:nonzero;fill:rgb(25.882353%,17.647059%,86.666667%);fill-opacity:1;" d="M 91.710938 45.808594 L 91.710938 43.011719 L 95.210938 43.011719 L 95.210938 13.660156 L 92.039062 13.660156 L 92.039062 10.859375 L 98.140625 10.859375 L 98.140625 43.019531 L 101.398438 43.019531 L 101.398438 45.820312 L 91.710938 45.820312 Z M 91.710938 45.808594 "/>
<path style=" stroke:none;fill-rule:nonzero;fill:rgb(25.882353%,17.647059%,86.666667%);fill-opacity:1;" d="M 103.5 45.808594 L 103.5 43.011719 L 107 43.011719 L 107 13.660156 L 103.828125 13.660156 L 103.828125 10.859375 L 109.929688 10.859375 L 109.929688 43.019531 L 113.191406 43.019531 L 113.191406 45.820312 L 103.5 45.820312 Z M 103.5 45.808594 "/>
<path style=" stroke:none;fill-rule:nonzero;fill:rgb(25.882353%,17.647059%,86.666667%);fill-opacity:1;" d="M 127.851562 45.53125 C 126.839844 45.960938 125.730469 46.179688 124.519531 46.179688 C 123.25 46.179688 122.039062 45.941406 120.910156 45.460938 C 119.78125 44.980469 118.800781 44.328125 118 43.53125 C 117.160156 42.691406 116.5 41.71875 116.019531 40.621094 C 115.539062 39.519531 115.300781 38.328125 115.300781 37.050781 C 115.300781 35.769531 115.539062 34.628906 116.019531 33.511719 C 116.5 32.390625 117.160156 31.410156 118 30.570312 C 118.808594 29.761719 119.78125 29.121094 120.910156 28.640625 C 122.039062 28.160156 123.25 27.921875 124.519531 27.921875 C 125.480469 27.921875 126.398438 28.109375 127.269531 28.480469 C 128.140625 28.851562 128.929688 29.351562 129.648438 29.96875 C 130.328125 30.621094 130.929688 31.378906 131.441406 32.25 C 131.949219 33.121094 132.351562 34.070312 132.628906 35.089844 C 130.359375 35.960938 128.109375 36.820312 125.871094 37.679688 C 123.628906 38.539062 121.378906 39.398438 119.109375 40.269531 C 119.640625 41.199219 120.371094 41.949219 121.300781 42.511719 C 122.230469 43.070312 123.300781 43.351562 124.519531 43.351562 C 125.359375 43.351562 126.140625 43.199219 126.851562 42.910156 C 127.558594 42.621094 128.191406 42.191406 128.710938 41.628906 L 130.53125 43.730469 C 129.75 44.511719 128.859375 45.109375 127.851562 45.550781 Z M 121.75 31.390625 C 120.929688 31.78125 120.21875 32.308594 119.628906 33 C 119.160156 33.589844 118.808594 34.269531 118.558594 35.050781 C 118.308594 35.828125 118.230469 36.648438 118.328125 37.519531 C 120.101562 36.839844 121.859375 36.148438 123.621094 35.46875 C 125.371094 34.789062 127.140625 34.121094 128.910156 33.46875 C 128.410156 32.660156 127.789062 32.019531 127.050781 31.539062 C 126.300781 31.058594 125.46875 30.820312 124.53125 30.820312 C 123.5 30.820312 122.578125 31.011719 121.761719 31.398438 Z M 121.75 31.390625 "/>
<path style=" stroke:none;fill-rule:nonzero;fill:rgb(25.882353%,17.647059%,86.666667%);fill-opacity:1;" d="M 147.28125 45.648438 C 146.300781 46.011719 145.25 46.191406 144.128906 46.191406 C 142.828125 46.191406 141.609375 45.949219 140.5 45.46875 C 139.378906 44.988281 138.421875 44.328125 137.609375 43.488281 C 136.738281 42.679688 136.070312 41.730469 135.609375 40.621094 C 135.140625 39.519531 134.910156 38.328125 134.910156 37.050781 C 134.910156 35.769531 135.148438 34.628906 135.628906 33.511719 C 136.109375 32.390625 136.769531 31.429688 137.609375 30.621094 C 138.421875 29.78125 139.378906 29.121094 140.5 28.640625 C 141.621094 28.160156 142.828125 27.921875 144.128906 27.921875 C 145.28125 27.921875 146.351562 28.101562 147.351562 28.460938 C 148.339844 28.820312 149.230469 29.308594 150.011719 29.929688 L 150.011719 34.960938 L 147.351562 34.960938 L 147.351562 31.648438 C 146.878906 31.371094 146.378906 31.160156 145.839844 31.019531 C 145.300781 30.878906 144.730469 30.808594 144.140625 30.808594 C 143.269531 30.808594 142.46875 30.949219 141.738281 31.230469 C 141.011719 31.511719 140.371094 31.910156 139.808594 32.441406 C 139.191406 33.03125 138.710938 33.710938 138.371094 34.488281 C 138.03125 35.269531 137.859375 36.121094 137.859375 37.050781 C 137.859375 37.980469 138.019531 38.789062 138.351562 39.570312 C 138.679688 40.351562 139.128906 41.011719 139.71875 41.570312 C 140.28125 42.101562 140.941406 42.53125 141.699219 42.851562 C 142.460938 43.179688 143.28125 43.339844 144.148438 43.339844 C 144.929688 43.339844 145.648438 43.21875 146.320312 42.988281 C 146.988281 42.761719 147.601562 42.410156 148.160156 41.941406 L 149.980469 44.179688 C 149.171875 44.800781 148.28125 45.289062 147.300781 45.648438 Z M 147.28125 45.648438 "/>
<path style=" stroke:none;fill-rule:nonzero;fill:rgb(25.882353%,17.647059%,86.666667%);fill-opacity:1;" d="M 156.070312 45.808594 L 156.070312 31.21875 L 152.109375 31.21875 L 152.109375 28.328125 L 156.070312 28.328125 L 156.070312 16.960938 L 159.011719 16.960938 L 159.011719 28.328125 L 164 28.328125 L 164 31.21875 L 159.011719 31.21875 L 159.011719 43.011719 L 162.691406 43.011719 L 162.691406 45.808594 Z M 156.070312 45.808594 "/>
<path style=" stroke:none;fill-rule:nonzero;fill:rgb(25.882353%,17.647059%,86.666667%);fill-opacity:1;" d="M 49.011719 28.5 C 49.011719 40.925781 38.9375 51 26.511719 51 C 14.082031 51 4.011719 40.925781 4.011719 28.5 C 4.011719 16.074219 14.082031 6 26.511719 6 C 38.9375 6 49.011719 16.074219 49.011719 28.5 Z M 49.011719 28.5 "/>
<path style=" stroke:none;fill-rule:nonzero;fill:rgb(100%,100%,100%);fill-opacity:1;" d="M 17.898438 12.851562 C 18.578125 13.601562 19.539062 14.03125 20.550781 14.03125 C 21.558594 14.03125 22.519531 13.601562 23.199219 12.851562 C 23.371094 12.660156 23.699219 12.660156 23.871094 12.851562 C 24.550781 13.601562 25.511719 14.03125 26.519531 14.03125 C 27.53125 14.03125 28.488281 13.601562 29.171875 12.851562 C 29.339844 12.660156 29.671875 12.660156 29.839844 12.851562 C 30.519531 13.601562 31.480469 14.03125 32.488281 14.03125 C 33.5 14.03125 34.460938 13.601562 35.140625 12.851562 L 35.808594 13.460938 C 34.960938 14.398438 33.75 14.929688 32.488281 14.929688 C 31.390625 14.929688 30.328125 14.519531 29.511719 13.789062 C 28.691406 14.519531 27.628906 14.929688 26.53125 14.929688 C 25.429688 14.929688 24.371094 14.519531 23.550781 13.789062 C 22.730469 14.519531 21.671875 14.929688 20.570312 14.929688 C 19.308594 14.929688 18.101562 14.390625 17.25 13.460938 L 17.921875 12.851562 Z M 17.898438 12.851562 "/>
<path style=" stroke:none;fill-rule:nonzero;fill:rgb(100%,100%,100%);fill-opacity:1;" d="M 12.570312 17.628906 C 13.988281 18.570312 16.019531 18.308594 17.179688 17.039062 C 17.351562 16.851562 17.679688 16.851562 17.851562 17.039062 C 18.53125 17.789062 19.5 18.21875 20.5 18.21875 C 21.5 18.21875 22.46875 17.789062 23.148438 17.039062 C 23.320312 16.851562 23.648438 16.851562 23.820312 17.039062 C 24.5 17.789062 25.46875 18.21875 26.46875 18.21875 C 27.46875 18.21875 28.441406 17.789062 29.121094 17.039062 C 29.289062 16.851562 29.621094 16.851562 29.789062 17.039062 C 30.46875 17.789062 31.441406 18.21875 32.441406 18.21875 C 33.441406 18.21875 34.410156 17.789062 35.089844 17.039062 C 35.261719 16.851562 35.589844 16.851562 35.761719 17.039062 C 36.941406 18.339844 39.03125 18.570312 40.449219 17.570312 L 40.96875 18.320312 C 40.21875 18.851562 39.328125 19.128906 38.410156 19.128906 C 37.308594 19.128906 36.25 18.71875 35.429688 17.988281 C 34.609375 18.71875 33.550781 19.128906 32.449219 19.128906 C 31.351562 19.128906 30.289062 18.71875 29.46875 17.988281 C 28.648438 18.71875 27.589844 19.128906 26.488281 19.128906 C 25.390625 19.128906 24.328125 18.71875 23.511719 17.988281 C 22.691406 18.71875 21.628906 19.128906 20.53125 19.128906 C 19.429688 19.128906 18.371094 18.71875 17.550781 17.988281 C 16.078125 19.300781 13.761719 19.480469 12.109375 18.390625 L 12.609375 17.628906 Z M 12.570312 17.628906 "/>
<path style=" stroke:none;fill-rule:nonzero;fill:rgb(100%,100%,100%);fill-opacity:1;" d="M 11.25 21.238281 C 11.339844 21.148438 11.460938 21.089844 11.589844 21.089844 C 11.71875 21.089844 11.839844 21.140625 11.929688 21.238281 C 12.609375 21.988281 13.570312 22.421875 14.578125 22.421875 C 15.589844 22.421875 16.550781 21.988281 17.230469 21.238281 C 17.398438 21.050781 17.730469 21.050781 17.898438 21.238281 C 18.578125 21.988281 19.539062 22.421875 20.550781 22.421875 C 21.558594 22.421875 22.519531 21.988281 23.199219 21.238281 C 23.371094 21.050781 23.699219 21.050781 23.871094 21.238281 C 24.550781 21.988281 25.511719 22.421875 26.519531 22.421875 C 27.53125 22.421875 28.488281 21.988281 29.171875 21.238281 C 29.339844 21.050781 29.671875 21.050781 29.839844 21.238281 C 30.519531 21.988281 31.480469 22.421875 32.488281 22.421875 C 33.5 22.421875 34.460938 21.988281 35.140625 21.238281 C 35.308594 21.050781 35.640625 21.050781 35.808594 21.238281 C 36.488281 21.988281 37.449219 22.421875 38.460938 22.421875 C 39.46875 22.421875 40.429688 21.988281 41.109375 21.238281 C 41.28125 21.050781 41.609375 21.050781 41.78125 21.238281 C 42.21875 21.71875 42.78125 22.078125 43.398438 22.261719 L 43.140625 23.128906 C 42.511719 22.941406 41.941406 22.621094 41.449219 22.179688 C 40.628906 22.910156 39.570312 23.320312 38.46875 23.320312 C 37.371094 23.320312 36.308594 22.910156 35.488281 22.179688 C 34.671875 22.910156 33.609375 23.320312 32.511719 23.320312 C 31.410156 23.320312 30.351562 22.910156 29.53125 22.179688 C 28.710938 22.910156 27.648438 23.320312 26.550781 23.320312 C 25.449219 23.320312 24.390625 22.910156 23.570312 22.179688 C 22.75 22.910156 21.691406 23.320312 20.589844 23.320312 C 19.488281 23.320312 18.429688 22.910156 17.609375 22.179688 C 16.789062 22.910156 15.730469 23.320312 14.628906 23.320312 C 13.53125 23.320312 12.46875 22.910156 11.648438 22.179688 C 11.160156 22.621094 10.578125 22.941406 9.960938 23.128906 L 9.699219 22.261719 C 10.320312 22.070312 10.878906 21.71875 11.320312 21.230469 Z M 11.25 21.238281 "/>
<path style=" stroke:none;fill-rule:nonzero;fill:rgb(100%,100%,100%);fill-opacity:1;" d="M 36.101562 43.628906 C 35.871094 43.488281 35.660156 43.328125 35.460938 43.160156 C 34.640625 43.890625 33.578125 44.300781 32.480469 44.300781 C 31.378906 44.300781 30.320312 43.890625 29.5 43.160156 C 28.679688 43.890625 27.621094 44.300781 26.519531 44.300781 C 25.421875 44.300781 24.359375 43.890625 23.539062 43.160156 C 22.71875 43.890625 21.660156 44.300781 20.558594 44.300781 C 19.460938 44.300781 18.398438 43.890625 17.578125 43.160156 C 17.378906 43.339844 17.171875 43.5 16.949219 43.628906 L 16.46875 42.859375 C 16.761719 42.679688 17.019531 42.460938 17.25 42.210938 C 17.339844 42.121094 17.460938 42.058594 17.589844 42.058594 C 17.71875 42.058594 17.839844 42.109375 17.929688 42.210938 C 18.609375 42.960938 19.570312 43.390625 20.578125 43.390625 C 21.589844 43.390625 22.550781 42.960938 23.230469 42.210938 C 23.398438 42.019531 23.730469 42.019531 23.898438 42.210938 C 24.578125 42.960938 25.539062 43.390625 26.550781 43.390625 C 27.558594 43.390625 28.519531 42.960938 29.199219 42.210938 C 29.371094 42.019531 29.699219 42.019531 29.871094 42.210938 C 30.550781 42.960938 31.511719 43.390625 32.519531 43.390625 C 33.53125 43.390625 34.488281 42.960938 35.171875 42.210938 C 35.339844 42.019531 35.671875 42.019531 35.839844 42.210938 C 36.070312 42.460938 36.328125 42.679688 36.621094 42.859375 L 36.140625 43.628906 Z M 36.101562 43.628906 "/>
<path style=" stroke:none;fill-rule:nonzero;fill:rgb(100%,100%,100%);fill-opacity:1;" d="M 38.449219 40.101562 C 37.351562 40.101562 36.289062 39.691406 35.46875 38.960938 C 34.648438 39.691406 33.589844 40.101562 32.488281 40.101562 C 31.390625 40.101562 30.328125 39.691406 29.511719 38.960938 C 28.691406 39.691406 27.628906 40.101562 26.53125 40.101562 C 25.429688 40.101562 24.371094 39.691406 23.550781 38.960938 C 22.730469 39.691406 21.671875 40.101562 20.570312 40.101562 C 19.46875 40.101562 18.410156 39.691406 17.589844 38.960938 C 16.011719 40.371094 13.488281 40.449219 11.820312 39.128906 L 12.390625 38.421875 C 13.808594 39.550781 16.019531 39.371094 17.25 38.019531 C 17.421875 37.828125 17.75 37.828125 17.921875 38.019531 C 18.601562 38.769531 19.558594 39.199219 20.570312 39.199219 C 21.578125 39.199219 22.539062 38.769531 23.21875 38.019531 C 23.390625 37.828125 23.71875 37.828125 23.890625 38.019531 C 24.570312 38.769531 25.53125 39.199219 26.539062 39.199219 C 27.550781 39.199219 28.511719 38.769531 29.191406 38.019531 C 29.359375 37.828125 29.691406 37.828125 29.859375 38.019531 C 30.539062 38.769531 31.5 39.199219 32.511719 39.199219 C 33.519531 39.199219 34.480469 38.769531 35.160156 38.019531 C 35.328125 37.828125 35.660156 37.828125 35.828125 38.019531 C 37.058594 39.371094 39.269531 39.550781 40.691406 38.421875 L 41.261719 39.128906 C 40.460938 39.761719 39.5 40.101562 38.480469 40.101562 Z M 38.449219 40.101562 "/>
<path style=" stroke:none;fill-rule:nonzero;fill:rgb(100%,100%,100%);fill-opacity:1;" d="M 43.121094 35.71875 C 42.488281 35.53125 41.921875 35.210938 41.429688 34.769531 C 40.609375 35.5 39.550781 35.910156 38.449219 35.910156 C 37.351562 35.910156 36.289062 35.5 35.46875 34.769531 C 34.648438 35.5 33.589844 35.910156 32.488281 35.910156 C 31.390625 35.910156 30.328125 35.5 29.511719 34.769531 C 28.691406 35.5 27.628906 35.910156 26.53125 35.910156 C 25.429688 35.910156 24.371094 35.5 23.550781 34.769531 C 22.730469 35.5 21.671875 35.910156 20.570312 35.910156 C 19.46875 35.910156 18.410156 35.5 17.589844 34.769531 C 16.769531 35.5 15.710938 35.910156 14.609375 35.910156 C 13.511719 35.910156 12.449219 35.5 11.628906 34.769531 C 11.140625 35.210938 10.558594 35.53125 9.941406 35.71875 L 9.679688 34.851562 C 10.300781 34.660156 10.859375 34.308594 11.300781 33.820312 C 11.390625 33.730469 11.511719 33.671875 11.640625 33.671875 C 11.769531 33.671875 11.890625 33.71875 11.980469 33.820312 C 12.660156 34.570312 13.621094 35 14.628906 35 C 15.640625 35 16.601562 34.570312 17.28125 33.820312 C 17.449219 33.628906 17.78125 33.628906 17.949219 33.820312 C 18.628906 34.570312 19.589844 35 20.601562 35 C 21.609375 35 22.570312 34.570312 23.25 33.820312 C 23.421875 33.628906 23.75 33.628906 23.921875 33.820312 C 24.601562 34.570312 25.558594 35 26.570312 35 C 27.578125 35 28.539062 34.570312 29.21875 33.820312 C 29.390625 33.628906 29.71875 33.628906 29.890625 33.820312 C 30.570312 34.570312 31.53125 35 32.539062 35 C 33.550781 35 34.511719 34.570312 35.191406 33.820312 C 35.359375 33.628906 35.691406 33.628906 35.859375 33.820312 C 36.539062 34.570312 37.5 35 38.511719 35 C 39.519531 35 40.480469 34.570312 41.160156 33.820312 C 41.328125 33.628906 41.660156 33.628906 41.828125 33.820312 C 42.269531 34.300781 42.828125 34.660156 43.449219 34.839844 L 43.191406 35.710938 Z M 43.121094 35.71875 "/>
<path style=" stroke:none;fill-rule:nonzero;fill:rgb(100%,100%,100%);fill-opacity:1;" d="M 43.96875 31.691406 C 43.019531 31.601562 42.140625 31.199219 41.429688 30.570312 C 40.609375 31.300781 39.550781 31.710938 38.449219 31.710938 C 37.351562 31.710938 36.289062 31.300781 35.46875 30.570312 C 34.648438 31.300781 33.589844 31.710938 32.488281 31.710938 C 31.390625 31.710938 30.328125 31.300781 29.511719 30.570312 C 28.691406 31.300781 27.628906 31.710938 26.53125 31.710938 C 25.429688 31.710938 24.371094 31.300781 23.550781 30.570312 C 22.730469 31.300781 21.671875 31.710938 20.570312 31.710938 C 19.46875 31.710938 18.410156 31.300781 17.589844 30.570312 C 16.769531 31.300781 15.710938 31.710938 14.609375 31.710938 C 13.511719 31.710938 12.449219 31.300781 11.628906 30.570312 C 10.921875 31.199219 10.039062 31.601562 9.089844 31.691406 L 9 30.78125 C 9.878906 30.691406 10.691406 30.28125 11.289062 29.621094 C 11.378906 29.519531 11.5 29.46875 11.628906 29.46875 C 11.761719 29.46875 11.878906 29.519531 11.96875 29.621094 C 12.648438 30.371094 13.609375 30.800781 14.621094 30.800781 C 15.628906 30.800781 16.589844 30.371094 17.269531 29.621094 C 17.441406 29.429688 17.769531 29.429688 17.941406 29.621094 C 18.621094 30.371094 19.578125 30.800781 20.589844 30.800781 C 21.601562 30.800781 22.558594 30.371094 23.238281 29.621094 C 23.410156 29.429688 23.738281 29.429688 23.910156 29.621094 C 24.589844 30.371094 25.550781 30.800781 26.558594 30.800781 C 27.570312 30.800781 28.53125 30.371094 29.210938 29.621094 C 29.378906 29.429688 29.710938 29.429688 29.878906 29.621094 C 30.558594 30.371094 31.519531 30.800781 32.53125 30.800781 C 33.539062 30.800781 34.5 30.371094 35.179688 29.621094 C 35.351562 29.429688 35.679688 29.429688 35.851562 29.621094 C 36.53125 30.371094 37.488281 30.800781 38.5 30.800781 C 39.511719 30.800781 40.46875 30.371094 41.148438 29.621094 C 41.320312 29.429688 41.648438 29.429688 41.820312 29.621094 C 42.421875 30.28125 43.238281 30.691406 44.109375 30.78125 L 44.019531 31.691406 Z M 43.96875 31.691406 "/>
<path style=" stroke:none;fill-rule:nonzero;fill:rgb(100%,100%,100%);fill-opacity:1;" d="M 41.429688 26.378906 C 40.609375 27.109375 39.550781 27.519531 38.449219 27.519531 C 37.351562 27.519531 36.289062 27.109375 35.46875 26.378906 C 34.648438 27.109375 33.589844 27.519531 32.488281 27.519531 C 31.390625 27.519531 30.328125 27.109375 29.511719 26.378906 C 28.691406 27.109375 27.628906 27.519531 26.53125 27.519531 C 25.429688 27.519531 24.371094 27.109375 23.550781 26.378906 C 22.730469 27.109375 21.671875 27.519531 20.570312 27.519531 C 19.46875 27.519531 18.410156 27.109375 17.589844 26.378906 C 16.769531 27.109375 15.710938 27.519531 14.609375 27.519531 C 13.511719 27.519531 12.449219 27.109375 11.628906 26.378906 C 10.878906 27.050781 9.929688 27.449219 8.921875 27.511719 L 8.859375 26.601562 C 9.789062 26.539062 10.648438 26.128906 11.289062 25.429688 C 11.378906 25.328125 11.5 25.28125 11.628906 25.28125 C 11.761719 25.28125 11.878906 25.328125 11.96875 25.429688 C 12.648438 26.179688 13.609375 26.609375 14.621094 26.609375 C 15.628906 26.609375 16.589844 26.179688 17.269531 25.429688 C 17.441406 25.238281 17.769531 25.238281 17.941406 25.429688 C 18.621094 26.179688 19.578125 26.609375 20.589844 26.609375 C 21.601562 26.609375 22.558594 26.179688 23.238281 25.429688 C 23.410156 25.238281 23.738281 25.238281 23.910156 25.429688 C 24.589844 26.179688 25.550781 26.609375 26.558594 26.609375 C 27.570312 26.609375 28.53125 26.179688 29.210938 25.429688 C 29.378906 25.238281 29.710938 25.238281 29.878906 25.429688 C 30.558594 26.179688 31.519531 26.609375 32.53125 26.609375 C 33.539062 26.609375 34.5 26.179688 35.179688 25.429688 C 35.351562 25.238281 35.679688 25.238281 35.851562 25.429688 C 36.53125 26.179688 37.488281 26.609375 38.5 26.609375 C 39.511719 26.609375 40.46875 26.179688 41.148438 25.429688 C 41.320312 25.238281 41.648438 25.238281 41.820312 25.429688 C 42.449219 26.128906 43.320312 26.539062 44.25 26.601562 L 44.191406 27.511719 C 43.179688 27.449219 42.230469 27.050781 41.480469 26.378906 Z M 41.429688 26.378906 "/>
</g>
</svg>
